Format : AVI
Format/Info : Audio Video Interleave
File size : 1.34 GiB
Duration : 1h 55mn
Overall bit rate : 1 656 Kbps
Writing library : VirtualDub build 32839/release

Video
ID : 0
Format : MPEG-4 Visual
Format profile : Advanced Simple@L5
Format settings, BVOP : Yes
Format settings, QPel : No
Format settings, GMC : No warppoints
Format settings, Matrix : Custom
Codec ID : XVID
Codec ID/Hint : XviD
Duration : 1h 55mn
Bit rate : 1 197 Kbps
Width : 720 pixels
Height : 400 pixels
Display aspect ratio : 16:9
Frame rate : 29.970 fps
Color space : YUV
Chroma subsampling : 4:2:0
Bit depth : 8 bits
Scan type : Progressive
Bits/(Pixel*Frame) : 0.139
Stream size : 988 MiB (72%)
Writing library : XviD 1.2.1 (UTC 2008-12-04)

Audio
ID : 1
Format : AC-3
Format/Info : Audio Coding 3
Mode extension : CM (complete main)
Codec ID : 2000
Duration : 1h 55mn
Bit rate mode : Constant
Bit rate : 448 Kbps
Channel(s) : 6 channels
Channel positions : Front: L C R, Side: L R, LFE
Sampling rate : 48.0 KHz
Bit depth : 16 bits
Stream size : 370 MiB (27%)
Alignment : Aligned on interleaves
Interleave, duration : 33 ms (1.00 video frame)
Interleave, preload duration : 512 ms



 
http://www.imdb.com/title/tt1504320/




Users: 8.6/10 (7,722 votes) 132 reviews | Critics: 153 reviews Metascore: 88/100 (based on 39 reviews from Metacritic.com)

The story of King George VI of Britain, his impromptu ascension to the throne and the speech therapist who helped the unsure monarch become worthy of it.
Director:
Tom Hooper
Writer:
David Seidler (screenplay)
Stars:
Colin Firth, Geoffrey Rush and Helena Bonham Carter






Video source - Demedic ( Thanks )
Audio source - Demedic ( Thanks ) Good work bro

Property of watermark comes on now and again as shown in screenshot,nothing major .Enjoy if your not already sick of this



Greetz to Imagine ,Flawl3ss ,Santi ,Vision ,Kingdom,BDK,DiGiTALiNK,LEGION,Classified,THC,WBZ,Rx ,Feel Free and to all who share